<svg width="9" height="10" viewBox="0 0 9 10" fill="none" xmlns="http://www.w3.org/2000/svg">
<path d="M2.3323 0.46392V9.19119H0.789684V0.46392H2.3323ZM5.4612 0.46392V9.19119H3.91859V0.46392H5.4612ZM7.99778 9.28494C7.73926 9.28494 7.51767 9.19403 7.33301 9.01222C7.14835 8.8304 7.05744 8.60881 7.06028 8.34744C7.05744 8.09176 7.14835 7.87301 7.33301 7.69119C7.51767 7.50937 7.73926 7.41847 7.99778 7.41847C8.24778 7.41847 8.46511 7.50937 8.64977 7.69119C8.83727 7.87301 8.93244 8.09176 8.93528 8.34744C8.93244 8.52074 8.88699 8.67841 8.79892 8.82045C8.71369 8.9625 8.60005 9.07614 8.45801 9.16136C8.3188 9.24375 8.16539 9.28494 7.99778 9.28494Z" fill="white"/>
</svg>
